<?xml version="1.0" standalone="no"?>
<!DOCTYPE svg PUBLIC "-//W3C//DTD SVG 20010904//EN"
        "http://www.w3.org/TR/2001/REC-SVG-20010904/DTD/svg10.dtd">
<svg version="1.0" xmlns="http://www.w3.org/2000/svg"
     width="280.000000pt" height="280.000000pt" viewBox="0 0 280.000000 280.000000"
     preserveAspectRatio="xMidYMid meet">
    <metadata>
        Created by potrace 1.14, written by Peter Selinger 2001-2017
    </metadata>
    <g transform="translate(0.000000,280.000000) scale(0.100000,-0.100000)"
       fill="#000000" stroke="none">
        <path d="M1555 2760 c-3 -4 0 -33 6 -64 9 -43 16 -56 30 -57 11 -1 22 -2 27
-3 4 -1 25 -5 47 -10 139 -28 321 -108 454 -199 109 -76 310 -279 311 -314 0
-7 4 -13 9 -13 5 0 16 -15 25 -32 9 -18 26 -49 38 -68 41 -68 90 -196 117
-305 l28 -109 49 -13 c56 -15 77 -16 71 -5 -3 4 -8 30 -11 57 -27 202 -138
450 -285 635 -148 186 -403 364 -630 440 -86 28 -280 69 -286 60z"/>
        <path d="M1115 2741 c-288 -62 -548 -214 -735 -428 -90 -103 -111 -132 -167
-228 -44 -76 -75 -144 -111 -240 -18 -48 -51 -186 -57 -239 l-5 -48 27 6 c16
3 42 9 60 12 30 6 32 9 53 98 77 328 267 600 546 779 96 62 263 138 334 152
122 24 137 32 145 73 3 20 9 47 12 60 6 26 5 26 -102 3z"/>
        <path d="M1370 2093 c-8 -3 -22 -11 -30 -19 -13 -11 -129 -47 -189 -59 -57
-11 -66 -25 -76 -120 -17 -160 -25 -212 -36 -242 -13 -34 -11 -73 3 -73 7 0
50 16 95 36 107 45 188 62 288 59 88 -3 141 -16 259 -65 47 -20 81 -29 87 -23
5 5 4 30 -5 63 -15 59 -22 108 -40 279 -8 67 -30 83 -154 106 -12 2 -26 6 -30
9 -5 3 -21 7 -35 10 -15 3 -39 14 -53 25 -26 21 -54 25 -84 14z m165 -302
c100 -23 144 -41 150 -64 4 -12 9 -29 11 -38 3 -12 -13 -10 -83 15 -152 52
-361 41 -483 -24 -22 -12 -23 -11 -16 21 3 19 12 39 19 46 12 12 102 39 167
49 19 3 36 7 38 9 7 6 151 -4 197 -14z"/>
        <path d="M1104 1528 c-41 -20 -41 -21 -36 -67 6 -54 34 -123 68 -168 26 -35
31 -81 11 -126 -9 -20 -28 -34 -69 -51 -114 -46 -220 -135 -263 -219 -30 -57
-51 -146 -46 -192 1 -8 421 -12 579 -6 21 1 22 5 22 94 l0 93 -84 103 -83 103
15 52 c8 28 16 52 17 54 2 2 20 -4 41 -13 80 -33 187 -29 280 11 6 3 21 -21
33 -52 21 -56 21 -58 3 -78 -11 -12 -32 -37 -48 -55 -16 -19 -47 -55 -69 -79
-39 -44 -40 -45 -41 -131 -1 -47 0 -90 2 -96 3 -8 465 -13 587 -6 15 1 17 8
11 54 -8 74 -62 183 -117 238 -51 52 -137 107 -209 134 -40 15 -47 22 -56 54
-13 55 -7 84 27 132 43 58 71 166 53 196 -4 7 -25 19 -45 28 -36 15 -38 15
-29 -2 22 -47 -6 -147 -59 -208 -100 -113 -281 -118 -383 -10 -51 53 -70 101
-71 172 0 35 0 63 0 62 0 0 -19 -10 -41 -21z"/>
        <path d="M45 1188 c77 -489 415 -904 875 -1075 109 -41 160 -54 256 -69 l47
-7 -8 29 c-4 16 -9 40 -12 54 -6 35 -12 39 -83 56 -177 41 -355 127 -501 240
-67 52 -203 202 -257 283 -104 155 -156 284 -197 487 -5 22 -20 28 -90 40
l-37 6 7 -44z"/>
        <path d="M2691 1219 c-24 -5 -45 -10 -47 -12 -2 -2 -7 -24 -10 -48 -15 -114
-98 -316 -186 -451 -109 -168 -317 -357 -468 -423 -19 -9 -43 -20 -53 -26 -60
-33 -150 -62 -272 -88 l-80 -17 -14 -57 c-7 -32 -12 -59 -10 -61 6 -6 147 19
218 38 365 98 704 382 869 728 59 123 90 219 117 359 14 78 18 74 -64 58z"/>
    </g>
</svg>
